<?xml version="1.0" standalone="no"?>
<!DOCTYPE svg PUBLIC "-//W3C//DTD SVG 20010904//EN"
 "http://www.w3.org/TR/2001/REC-SVG-20010904/DTD/svg10.dtd">
<svg version="1.0" xmlns="http://www.w3.org/2000/svg"
 width="512.000000pt" height="512.000000pt" viewBox="0 0 512.000000 512.000000"
 preserveAspectRatio="xMidYMid meet">
<metadata>
Created by potrace 1.14, written by Peter Selinger 2001-2017
</metadata>
<g transform="translate(0.000000,512.000000) scale(0.100000,-0.100000)"
fill="#000000" stroke="none">
<path d="M1985 4695 c-135 -16 -252 -39 -360 -71 -104 -30 -127 -39 -255 -101
-389 -191 -595 -512 -604 -942 -9 -425 173 -708 599 -932 179 -95 498 -207
721 -254 10 -2 107 -24 214 -49 107 -25 206 -47 220 -50 83 -15 418 -99 485
-121 145 -48 297 -129 380 -202 32 -29 90 -105 109 -143 45 -90 53 -238 21
-362 -44 -173 -169 -318 -340 -393 -22 -9 -49 -21 -60 -26 -22 -10 -160 -45
-215 -54 -79 -14 -375 -14 -465 0 -189 31 -367 101 -533 212 -102 67 -284 244
-367 356 l-58 78 0 190 0 189 -39 1 c-21 0 -94 0 -163 0 -69 0 -207 0 -308 0
l-182 -1 -1 -770 0 -770 20 -1 c26 -1 599 -1 642 0 l31 1 -1 155 c-1 85 1 155
4 155 3 0 23 -12 45 -27 60 -41 88 -57 230 -128 104 -52 287 -127 327 -134 4
-1 13 -3 20 -6 36 -11 191 -46 248 -54 36 -6 81 -13 100 -17 74 -13 466 -12
585 2 150 17 332 56 450 96 367 126 665 377 779 658 10 25 22 54 27 65 55 131
78 381 55 590 -8 72 -54 256 -67 270 -5 5 -9 15 -9 23 0 48 -108 209 -197 293
-246 235 -571 386 -1077 499 -194 43 -317 70 -349 76 -16 2 -81 16 -145 30
-64 14 -128 28 -142 30 -14 3 -45 10 -70 15 -25 6 -56 13 -70 15 -42 8 -228
64 -304 91 -95 34 -212 94 -261 133 -188 150 -201 451 -26 626 79 80 254 160
391 178 25 3 56 9 70 12 60 14 407 13 505 -2 299 -44 537 -162 741 -364 l82
-82 -2 -145 c0 -86 3 -148 9 -152 6 -4 159 -7 340 -7 l330 1 0 645 0 645 -337
1 -338 1 -1 -26 c0 -14 -1 -72 -1 -128 -1 -57 -2 -103 -3 -103 -1 0 -48 24
-106 54 -199 104 -433 183 -639 215 -36 6 -81 13 -100 17 -68 12 -484 11 -585
-1z"/>
</g>
</svg>
